<?xml version="1.0" encoding="UTF-8" standalone="no"?><!DOCTYPE svg PUBLIC "-//W3C//DTD SVG 1.1//EN" "http://www.w3.org/Graphics/SVG/1.1/DTD/svg11.dtd"><svg width="100%" height="100%" viewBox="0 0 4198 2214" version="1.1" xmlns="http://www.w3.org/2000/svg" xmlns:xlink="http://www.w3.org/1999/xlink" xml:space="preserve" xmlns:serif="http://www.serif.com/" style="fill-rule:evenodd;clip-rule:evenodd;stroke-linejoin:round;stroke-miterlimit:2;"><rect id="Artboard1" x="0" y="0" width="4197.62" height="2213.05" style="fill:none;"/><clipPath id="_clip1"><rect x="0" y="0" width="4197.62" height="2213.05"/></clipPath><g clip-path="url(#_clip1)"><path d="M2425.77,168.782c392.496,65.413 1316.25,174.762 1570.06,353.688c251.197,178.925 234.644,580.357 132.595,897.805c-104.666,317.448 -401.697,342.337 -726.16,430.838c-321.847,88.5 -1060.83,13.588 -1432.39,30.903c-368.946,19.24 -648.326,243.402 -1014.65,316.512c-368.946,73.109 -796.662,-110.622 -914.411,-293.396c-120.365,-180.849 64.003,-360.74 108.486,-653.178c44.482,-294.361 -99.433,-519.461 -5.234,-665.679c91.583,-144.295 421.279,-209.709 693.41,-315.525c272.131,-105.816 489.312,-252.035 719.576,-267.426c230.264,-15.392 476.229,100.044 868.725,165.458Zm-1191.11,1339.09c34.832,-0 55.446,-18.008 55.446,-48.219l0,-128.546l-19.904,0l0,19.904l-2.251,0c-5.568,-13.862 -19.666,-22.036 -38.267,-22.036c-30.093,-0 -49.76,21.325 -49.76,54.38l0,23.102c0,32.936 19.549,54.38 49.286,54.38c18.719,0 32.936,-8.174 38.623,-21.681l2.132,0l0,20.023c0,20.614 -12.439,31.988 -34.95,31.988c-17.179,-0 -30.092,-6.99 -32.699,-17.653l-19.904,0c2.607,21.326 22.511,34.358 52.248,34.358Zm-742.725,-24.761c11.61,-0 23.339,-1.896 29.026,-4.621l0,-13.98c-4.976,2.488 -16.231,4.265 -26.894,4.265c-36.016,0 -52.484,-23.695 -52.484,-76.179l-0,-18.364c-0,-51.655 15.283,-74.994 48.456,-74.994c31.041,-0 47.153,20.614 47.153,61.014l0,33.292c0,11.847 -4.028,16.231 -14.928,16.231l-19.43,-0l0,-49.167c0,-8.886 -4.502,-14.454 -11.373,-14.454c-6.99,-0 -11.492,5.568 -11.492,14.454l-0,48.456c-0,8.767 5.568,14.335 14.454,14.335l30.211,0c17.06,0 27.012,-11.255 27.012,-30.329l0,-35.424c0,-46.798 -22.155,-72.744 -61.488,-72.744c-41.348,0 -63.266,30.567 -63.266,88.264l-0,22.155c-0,57.697 22.392,87.79 65.043,87.79Zm1549.19,-152.004l-20.141,0l-0,75.706c-0,21.918 -14.217,36.727 -35.424,36.727c-20.022,-0 -29.5,-10.9 -29.5,-34.121l-0,-78.312l-20.141,0l-0,83.407c-0,30.803 15.165,47.508 43.125,47.508c19.548,0 34.239,-9.004 41.111,-24.998l1.658,-0l0,22.629l19.312,-0l-0,-128.546Zm-1050.1,0l-20.141,0l-0,75.706c-0,21.918 -14.217,36.727 -35.424,36.727c-20.022,-0 -29.5,-10.9 -29.5,-34.121l-0,-78.312l-20.141,0l-0,83.407c-0,30.803 15.165,47.508 43.125,47.508c19.548,0 34.239,-9.004 41.111,-24.998l1.658,-0l0,22.629l19.312,-0l-0,-128.546Zm1332.24,95.373c-3.554,11.255 -15.52,18.126 -31.751,18.126c-21.918,0 -35.898,-15.165 -35.898,-38.741l-0,-5.213l87.553,0l-0,-12.558c-0,-37.201 -19.667,-59.356 -53.077,-59.356c-32.699,-0 -54.38,22.273 -54.38,56.157l0,19.311c0,36.609 20.496,57.816 55.802,57.816c27.012,0 47.39,-14.335 51.299,-35.542l-19.548,-0Zm-1534.85,35.542c34.002,0 55.683,-22.155 55.683,-56.868l-0,-19.43c-0,-34.713 -21.681,-56.868 -55.683,-56.868c-34.003,0 -55.683,22.155 -55.683,56.868l-0,19.43c-0,34.713 21.68,56.868 55.683,56.868Zm600.056,0c34.003,0 55.683,-22.155 55.683,-56.868l0,-19.43c0,-34.713 -21.68,-56.868 -55.683,-56.868c-34.002,0 -55.683,22.155 -55.683,56.868l0,19.43c0,34.713 21.681,56.868 55.683,56.868Zm437.01,-0.118c18.719,-0 32.699,-7.701 38.86,-21.444l2.014,-0l0,19.311l19.193,0l0,-88.027c0,-26.775 -17.297,-42.177 -47.508,-42.177c-26.302,0 -46.206,14.099 -48.575,34.713l19.785,0c3.318,-11.018 13.743,-17.297 28.553,-17.297c17.889,-0 27.723,8.886 27.723,24.998l-0,11.611l-35.306,1.777c-29.263,1.54 -45.612,15.046 -45.612,37.793c-0,23.34 16.349,38.742 40.873,38.742Zm741.185,-165.273l0,34.832l-34.239,-0l0,17.179l34.239,-0l0,72.743c0,26.775 14.81,38.86 46.679,38.86c6.161,-0 21.8,-0.592 24.999,-1.185l-0,-17.06c-3.436,0.355 -16.35,0.711 -23.577,0.711c-18.126,-0 -27.96,-7.583 -27.96,-21.563l0,-72.506l51.892,-0l0,-17.179l-52.129,-0l0,-34.832l-19.904,0Zm-433.456,67.294l0,-32.818l-47.982,0l0,16.113l28.553,-0l-0,96.32l-25.946,-0l-0,16.113l85.42,-0l0,-16.113l-39.808,-0l0,-41.466c0,-32.699 16.824,-52.366 45.258,-52.366c6.99,-0 15.283,1.422 21.207,3.554l-0,-22.629c-4.265,-1.777 -11.255,-2.843 -18.601,-2.843c-24.761,-0 -40.755,12.321 -45.494,36.135l-2.607,-0Zm-1050.1,-0l-0,-32.818l-47.983,0l0,16.113l28.553,-0l-0,96.32l-25.946,-0l-0,16.113l85.42,-0l0,-16.113l-39.807,-0l-0,-41.466c-0,-32.699 16.823,-52.366 45.257,-52.366c6.99,-0 15.283,1.422 21.207,3.554l-0,-22.629c-4.265,-1.777 -11.255,-2.843 -18.601,-2.843c-24.761,-0 -40.755,12.321 -45.494,36.135l-2.606,-0Zm663.322,76.298l-81.037,-0l-0,-151.53l-20.733,0l-0,170.96l101.77,-0l-0,-19.43Zm-1104.84,19.43c36.728,-0 58.527,-17.772 58.527,-47.746c0,-22.866 -15.046,-39.57 -38.03,-41.822l-0,-1.777c17.178,-2.961 29.381,-18.482 29.381,-37.319c0,-26.539 -18.956,-42.296 -50.47,-42.296l-55.328,0l0,170.96l55.92,-0Zm1744.37,-0l20.141,-0l-0,-75.706c-0,-21.918 14.217,-36.727 35.424,-36.727c20.022,-0 29.5,10.9 29.5,34.121l0,78.312l20.141,-0l-0,-83.407c-0,-30.803 -15.165,-47.508 -43.125,-47.508c-19.548,-0 -34.239,9.004 -41.111,24.998l-1.658,-0l-0,-22.629l-19.312,0l0,128.546Zm-900.085,-0l20.141,-0l0,-75.706c0,-21.918 14.217,-36.727 35.424,-36.727c20.022,-0 29.5,10.9 29.5,34.121l0,78.312l20.141,-0l0,-83.407c0,-30.803 -15.165,-47.508 -43.125,-47.508c-19.548,-0 -34.239,9.004 -41.11,24.998l-1.659,-0l-0,-22.629l-19.312,0l0,128.546Zm345.405,-15.402c-16.231,-0 -26.302,-8.293 -26.302,-21.8c0,-13.387 9.478,-21.088 27.486,-21.917l33.055,-1.541l-0,15.165c-0,17.179 -14.809,30.093 -34.239,30.093Zm-442.816,-97.624c22.037,0 35.78,15.639 35.78,40.874l-0,15.757c-0,25.354 -13.743,40.874 -35.78,40.874c-22.036,0 -35.779,-15.52 -35.779,-40.874l-0,-15.757c-0,-25.235 13.743,-40.874 35.779,-40.874Zm-600.056,0c22.036,0 35.779,15.639 35.779,40.874l0,15.757c0,25.354 -13.743,40.874 -35.779,40.874c-22.037,0 -35.78,-15.52 -35.78,-40.874l0,-15.757c0,-25.235 13.743,-40.874 35.78,-40.874Zm411.775,56.987l-0,-17.653c-0,-23.576 13.743,-38.86 35.068,-38.86c21.207,0 34.832,15.165 34.832,38.86l-0,17.653c-0,23.695 -13.625,38.978 -34.832,38.978c-21.325,0 -35.068,-15.402 -35.068,-38.978Zm-593.778,37.912l0,-61.607l29.975,-0c27.723,-0 42.058,10.426 42.058,30.566c0,20.378 -14.217,31.041 -41.348,31.041l-30.685,-0Zm1683.57,-95.491c20.733,0 33.291,14.809 33.291,39.334l-67.649,-0c-0,-24.643 12.914,-39.334 34.358,-39.334Zm-1683.57,-39.334l29.856,0c21.799,0 34.121,10.071 34.121,27.961c-0,18.008 -13.032,27.841 -37.32,27.841l-26.657,0l0,-55.802Zm2590.83,-269.25l2.302,-0l-0,34.29c-0,38.893 -25.085,62.137 -65.129,62.137c-28.767,-0 -44.416,-12.197 -53.621,-20.712c-7.365,-6.904 -11.967,-13.118 -21.633,-13.118c-10.126,-0 -16.8,7.134 -16.8,17.03c-0,12.888 11.277,26.005 26.005,34.981c17.261,10.586 40.965,16.569 67.66,16.569c60.296,0 102.871,-31.298 102.871,-97.807l0,-215.177c0,-14.959 -7.825,-22.094 -19.101,-22.094c-11.047,0 -18.641,6.905 -18.641,21.633l-0,17.03l-1.841,0c-8.515,-20.021 -33.6,-40.273 -71.342,-40.273c-52.011,-0 -94.586,38.662 -94.586,101.489l-0,40.965c-0,62.827 42.575,101.029 95.046,101.029c34.98,0 59.375,-17.26 68.81,-37.972Zm208.043,-205.742c-59.605,0 -104.021,38.893 -104.021,106.553l-0,36.822c-0,67.89 44.416,106.783 104.021,106.783c59.375,0 103.792,-38.893 103.792,-106.783l-0,-36.822c-0,-67.66 -44.417,-106.553 -103.792,-106.553Zm-949.541,0c-59.605,0 -104.021,38.893 -104.021,106.553l0,36.822c0,67.89 44.416,106.783 104.021,106.783c59.376,0 103.792,-38.893 103.792,-106.783l-0,-36.822c-0,-67.66 -44.416,-106.553 -103.792,-106.553Zm-1152.29,144.526c-0,65.358 40.044,105.632 104.942,105.632c32.449,0 61.906,-10.126 77.095,-26.465c6.904,-7.135 11.277,-15.88 11.277,-23.014c0,-9.666 -6.674,-16.8 -15.419,-16.8c-6.674,0 -9.436,1.841 -21.863,13.348c-12.888,12.427 -28.767,18.641 -49.249,18.641c-41.425,-0 -66.509,-26.236 -66.739,-68.12l-0,-12.658l137.621,0c17.03,0 21.633,-7.364 21.633,-33.6c-0,-59.375 -40.504,-101.49 -98.268,-101.49c-59.606,0 -101.03,43.726 -101.03,106.323l-0,38.203Zm-520.568,69.271l1.611,-0l0,13.578c0.461,13.117 7.365,20.942 19.102,20.942c12.197,0 19.331,-8.055 19.331,-21.863l0,-145.906c0,-51.781 -32.219,-80.317 -90.443,-80.317c-23.704,-0 -41.885,4.372 -55.923,12.427c-19.332,11.046 -28.767,24.394 -28.767,37.972c-0,9.436 6.213,15.65 15.419,15.65c7.134,-0 12.427,-2.302 17.95,-8.746c14.499,-16.569 28.307,-23.704 48.789,-23.704c34.751,0 53.392,15.88 53.392,46.948l-0,23.474l-63.978,-0c-53.162,-0 -85.15,27.386 -85.15,71.342c-0,44.416 31.758,74.334 78.936,74.334c30.608,0 55.233,-12.657 69.731,-36.131Zm1988.38,-7.825l2.301,0l0,21.633c0,14.268 8.515,20.712 19.792,20.712c11.277,0 19.792,-6.214 19.792,-21.172l-0,-204.131c-0,-14.959 -8.515,-21.403 -19.792,-21.403c-11.507,0 -20.022,6.444 -20.022,21.403l0,135.09c0,31.068 -26.005,57.074 -65.128,57.074c-27.617,-0 -51.781,-12.888 -51.781,-52.932l0,-139.232c0,-14.959 -8.515,-21.403 -19.792,-21.403c-11.506,0 -20.021,6.444 -20.021,21.403l-0,149.358c-0,55.923 35.671,77.556 80.317,77.556c46.948,0 66.97,-24.164 74.334,-43.956Zm-1729.7,0l2.302,0l-0,21.633c-0,14.268 8.515,20.712 19.791,20.712c11.277,0 19.792,-6.214 19.792,-21.172l-0,-204.131c-0,-14.959 -8.515,-21.403 -19.792,-21.403c-11.507,0 -20.022,6.444 -20.022,21.403l0,135.09c0,31.068 -26.005,57.074 -65.128,57.074c-27.616,-0 -51.781,-12.888 -51.781,-52.932l0,-139.232c0,-14.959 -8.515,-21.403 -19.791,-21.403c-11.507,0 -20.022,6.444 -20.022,21.403l-0,149.358c-0,55.923 35.671,77.556 80.317,77.556c46.948,0 66.97,-24.164 74.334,-43.956Zm800.413,-24.164c-0,50.4 16.8,67.89 60.526,67.89c13.117,-0 22.093,-1.611 28.537,-4.833c7.134,-3.452 10.126,-8.745 10.126,-15.189c-0,-8.975 -6.214,-14.729 -15.189,-14.729c-4.373,0 -8.976,0.691 -15.42,0.691c-22.323,-0 -28.767,-7.595 -28.767,-33.37l0,-144.525l32.219,-0c11.277,-0 18.411,-6.214 18.411,-16.57c0,-10.356 -6.904,-16.8 -18.411,-16.8l-32.449,-0l0,-39.814c0,-13.808 -7.364,-21.862 -19.791,-21.862c-12.198,-0 -19.562,8.054 -19.562,21.862l0,39.814l-17.72,-0c-11.507,-0 -18.411,6.444 -18.411,16.8c-0,10.356 7.134,16.57 18.411,16.57l17.49,-0l-0,144.065Zm-82.159,44.416l0,-145.676c0,-50.86 -30.147,-80.317 -82.388,-80.317c-37.052,-0 -63.288,17.49 -73.414,48.098l-2.071,-0l0,-24.855c0,-13.578 -7.364,-21.633 -19.561,-21.633c-12.198,0 -19.792,8.285 -19.792,22.094l-0,202.289c-0,13.808 7.364,22.093 19.792,22.093c12.427,0 19.791,-8.285 19.791,-22.093l0,-115.528c0,-47.178 25.085,-75.485 64.899,-75.485c34.06,0 52.931,19.792 52.931,57.304l-0,133.709c-0,13.808 7.364,22.093 19.792,22.093c12.427,0 20.021,-8.285 20.021,-22.093Zm2007.25,0l0,-145.676c0,-50.86 -30.148,-80.317 -82.389,-80.317c-37.052,-0 -63.287,17.49 -73.413,48.098l-2.071,-0l-0,-24.855c-0,-13.578 -7.365,-21.633 -19.562,-21.633c-12.197,0 -19.791,8.285 -19.791,22.094l-0,202.289c-0,13.808 7.364,22.093 19.791,22.093c12.428,0 19.792,-8.285 19.792,-22.093l-0,-115.528c-0,-47.178 25.085,-75.485 64.898,-75.485c34.06,0 52.932,19.792 52.932,57.304l-0,133.709c-0,13.808 7.364,22.093 19.791,22.093c12.428,0 20.022,-8.285 20.022,-22.093Zm-2573.61,0l-0,-130.027c-0,-39.813 18.411,-58.915 53.852,-59.145c7.594,0 13.348,-0.92 17.49,-3.222c5.293,-2.991 7.825,-7.824 7.825,-14.958c-0,-6.214 -2.762,-11.507 -7.825,-14.499c-4.373,-2.762 -10.126,-4.142 -17.03,-4.142c-22.093,-0 -40.734,10.816 -53.392,32.449l-1.15,-0l-0,-9.206c-0,-13.348 -7.134,-21.633 -19.332,-21.633c-12.197,0 -20.021,8.516 -20.021,22.094l-0,202.289c-0,13.808 7.364,22.093 19.791,22.093c12.658,0 19.792,-8.285 19.792,-22.093Zm1729.7,0l-0,-130.027c-0,-39.813 18.41,-58.915 53.851,-59.145c7.595,0 13.348,-0.92 17.491,-3.222c5.293,-2.991 7.824,-7.824 7.824,-14.958c0,-6.214 -2.761,-11.507 -7.824,-14.499c-4.373,-2.762 -10.126,-4.142 -17.03,-4.142c-22.093,-0 -40.734,10.816 -53.392,32.449l-1.151,-0l0,-9.206c0,-13.348 -7.134,-21.633 -19.331,-21.633c-12.197,0 -20.022,8.516 -20.022,22.094l0,202.289c0,13.808 7.365,22.093 19.792,22.093c12.657,0 19.792,-8.285 19.792,-22.093Zm-2312.87,1.841c0,-11.046 -8.054,-18.181 -20.712,-18.181l-126.344,0l-0,-258.212c-0,-13.578 -7.825,-22.093 -20.252,-22.093c-12.428,-0 -20.022,8.515 -20.022,22.093l-0,260.284c-0,24.394 10.586,34.06 37.052,34.06l129.566,-0c12.658,-0 20.712,-6.904 20.712,-17.951Zm1472.41,-16.109c0,24.394 10.586,34.06 37.052,34.06l76.175,-0c68.12,-0 109.775,-33.37 109.775,-87.912c-0,-43.266 -25.545,-72.033 -68.12,-77.786l-0,-1.611c32.449,-10.126 50.169,-34.52 50.169,-69.501c0,-47.408 -33.6,-77.326 -87.221,-77.326l-80.778,0c-26.466,0 -37.052,9.666 -37.052,34.06l0,246.016Zm-1407.97,-37.282c0,-24.625 17.031,-38.433 46.718,-38.433l61.907,-0l-0,27.386c-0,30.148 -26.006,53.161 -59.375,53.161c-29.458,0 -49.25,-17.03 -49.25,-42.114Zm1781.02,-140.153c39.124,-0 63.518,29.917 63.518,75.484l0,29.918c0,46.718 -24.394,75.945 -63.518,75.945c-39.123,-0 -63.977,-29.227 -63.977,-75.945l-0,-29.918c-0,-45.567 24.854,-75.484 63.977,-75.484Zm949.541,-0c39.123,-0 63.518,29.917 63.518,75.484l-0,29.918c-0,46.718 -24.395,75.945 -63.518,75.945c-39.123,-0 -63.977,-29.227 -63.977,-75.945l-0,-29.918c-0,-45.567 24.854,-75.484 63.977,-75.484Zm-1282.55,176.284l-0,-109.085l75.715,0c41.884,0 66.049,20.713 66.049,56.614c-0,37.052 -25.085,52.471 -87.222,52.471l-54.542,-0Zm950.691,-75.945l0,-25.085c0,-44.646 25.085,-75.024 63.518,-75.024c40.504,-0 62.367,32.909 62.367,68.35l-0,39.354c-0,34.52 -21.173,66.969 -60.986,66.969c-38.203,0 -64.899,-29.918 -64.899,-74.564Zm-1729.93,-31.989l-0,-0.69c-0,-40.504 24.854,-68.12 61.446,-68.12c35.671,-0 58.454,26.465 58.454,68.12l0,0.69l-119.9,0Zm779.24,-35.671l-0,-100.109l71.342,-0c33.6,-0 53.161,17.951 53.161,49.019c0,34.981 -23.704,51.09 -76.405,51.09l-48.098,0Z" style="fill:#4191b6;fill-rule:nonzero;"/></g></svg>