<?xml version="1.0" encoding="UTF-8" standalone="no"?><!DOCTYPE svg PUBLIC "-//W3C//DTD SVG 1.1//EN" "http://www.w3.org/Graphics/SVG/1.1/DTD/svg11.dtd"><svg width="100%" height="100%" viewBox="0 0 6861 2214" version="1.1" xmlns="http://www.w3.org/2000/svg" xmlns:xlink="http://www.w3.org/1999/xlink" xml:space="preserve" xmlns:serif="http://www.serif.com/" style="fill-rule:evenodd;clip-rule:evenodd;stroke-linejoin:round;stroke-miterlimit:2;"><rect id="Artboard1" x="0" y="0" width="6860.04" height="2213.05" style="fill:none;"/><path d="M2426.89,173.111c513.72,-66.998 1446.05,32.979 1570.06,353.688c80.47,208.108 593.456,394.865 129.482,523.457c-252.347,69.939 -337.005,459.575 -797.643,344.945c-350.65,-87.26 -806.697,543.382 -1317.92,222.376c-312.88,-196.462 -689.36,42.353 -1055.69,115.462c-368.946,73.109 -796.661,-110.622 -914.41,-293.395c-120.366,-180.85 73.341,-146.824 117.824,-439.261c44.483,-294.361 -29.727,-245.89 -13.416,-409.78c24.684,-248.012 421.279,-209.708 693.41,-315.524c272.13,-105.816 489.311,-252.035 719.576,-267.426c230.264,-15.392 474.156,216.916 868.724,165.458Zm-1194.23,1183.04c34.832,0 55.447,-18.008 55.447,-48.219l-0,-128.545l-19.904,-0l-0,19.903l-2.251,0c-5.568,-13.861 -19.667,-22.036 -38.268,-22.036c-30.092,-0 -49.759,21.325 -49.759,54.38l0,23.103c0,32.936 19.548,54.38 49.286,54.38c18.719,-0 32.936,-8.175 38.622,-21.681l2.133,-0l-0,20.022c-0,20.615 -12.44,31.988 -34.95,31.988c-17.179,0 -30.093,-6.99 -32.699,-17.653l-19.904,0c2.606,21.326 22.51,34.358 52.247,34.358Zm-742.725,-24.761c11.611,-0 23.34,-1.896 29.027,-4.621l-0,-13.98c-4.976,2.488 -16.231,4.265 -26.894,4.265c-36.017,0 -52.485,-23.695 -52.485,-76.179l0,-18.364c0,-51.655 15.284,-74.994 48.457,-74.994c31.04,-0 47.153,20.614 47.153,61.014l-0,33.292c-0,11.847 -4.029,16.231 -14.928,16.231l-19.43,-0l-0,-49.167c-0,-8.886 -4.502,-14.454 -11.374,-14.454c-6.99,-0 -11.492,5.568 -11.492,14.454l0,48.456c0,8.767 5.569,14.335 14.454,14.335l30.211,0c17.061,0 27.013,-11.255 27.013,-30.329l-0,-35.424c-0,-46.798 -22.155,-72.744 -61.489,-72.744c-41.348,0 -63.265,30.567 -63.265,88.264l-0,22.155c-0,57.697 22.391,87.79 65.042,87.79Zm1549.19,-152.003l-20.141,-0l0,75.705c0,21.918 -14.217,36.727 -35.424,36.727c-20.022,0 -29.5,-10.899 -29.5,-34.121l0,-78.311l-20.141,-0l0,83.406c0,30.803 15.165,47.508 43.125,47.508c19.549,0 34.24,-9.004 41.111,-24.998l1.659,0l-0,22.629l19.311,-0l0,-128.545Zm-1050.1,-0l-20.141,-0l0,75.705c0,21.918 -14.216,36.727 -35.424,36.727c-20.022,0 -29.5,-10.899 -29.5,-34.121l0,-78.311l-20.14,-0l-0,83.406c-0,30.803 15.164,47.508 43.124,47.508c19.549,0 34.24,-9.004 41.111,-24.998l1.659,0l-0,22.629l19.311,-0l0,-128.545Zm1332.24,95.372c-3.555,11.255 -15.521,18.127 -31.752,18.127c-21.917,-0 -35.898,-15.165 -35.898,-38.742l0,-5.213l87.553,0l0,-12.558c0,-37.201 -19.666,-59.356 -53.076,-59.356c-32.699,0 -54.38,22.273 -54.38,56.157l-0,19.312c-0,36.608 20.496,57.815 55.801,57.815c27.013,0 47.39,-14.335 51.3,-35.542l-19.548,-0Zm-1534.86,35.542c34.003,0 55.683,-22.154 55.683,-56.868l0,-19.43c0,-34.713 -21.68,-56.867 -55.683,-56.867c-34.002,-0 -55.683,22.154 -55.683,56.867l0,19.43c0,34.714 21.681,56.868 55.683,56.868Zm600.057,0c34.002,0 55.683,-22.154 55.683,-56.868l-0,-19.43c-0,-34.713 -21.681,-56.867 -55.683,-56.867c-34.003,-0 -55.683,22.154 -55.683,56.867l-0,19.43c-0,34.714 21.68,56.868 55.683,56.868Zm437.01,-0.118c18.719,-0 32.699,-7.701 38.86,-21.444l2.014,-0l-0,19.311l19.193,0l-0,-88.027c-0,-26.775 -17.298,-42.177 -47.509,-42.177c-26.301,0 -46.205,14.099 -48.574,34.714l19.785,-0c3.317,-11.019 13.743,-17.298 28.552,-17.298c17.89,0 27.723,8.886 27.723,24.998l0,11.611l-35.305,1.777c-29.263,1.54 -45.613,15.046 -45.613,37.794c0,23.339 16.35,38.741 40.874,38.741Zm741.185,-165.273l-0,34.832l-34.239,-0l-0,17.179l34.239,-0l-0,72.743c-0,26.776 14.809,38.86 46.679,38.86c6.161,0 21.799,-0.592 24.998,-1.185l0,-17.06c-3.436,0.355 -16.349,0.711 -23.576,0.711c-18.127,-0 -27.96,-7.582 -27.96,-21.563l-0,-72.506l51.892,-0l-0,-17.179l-52.129,-0l-0,-34.832l-19.904,0Zm-433.456,67.294l0,-32.817l-47.982,-0l-0,16.112l28.552,0l0,96.32l-25.946,0l0,16.113l85.421,-0l-0,-16.113l-39.808,0l-0,-41.466c-0,-32.699 16.823,-52.366 45.257,-52.366c6.99,0 15.284,1.422 21.207,3.554l0,-22.628c-4.265,-1.777 -11.255,-2.844 -18.6,-2.844c-24.761,0 -40.756,12.322 -45.495,36.135l-2.606,0Zm-1050.1,0l0,-32.817l-47.982,-0l-0,16.112l28.552,0l0,96.32l-25.946,0l0,16.113l85.421,-0l-0,-16.113l-39.808,0l0,-41.466c0,-32.699 16.824,-52.366 45.257,-52.366c6.991,0 15.284,1.422 21.207,3.554l0,-22.628c-4.265,-1.777 -11.255,-2.844 -18.6,-2.844c-24.761,0 -40.755,12.322 -45.494,36.135l-2.607,0Zm663.322,76.298l-81.037,-0l0,-151.529l-20.733,-0l0,170.959l101.77,-0l0,-19.43Zm-1104.83,19.43c36.727,-0 58.527,-17.771 58.527,-47.746c-0,-22.865 -15.047,-39.57 -38.031,-41.821l0,-1.777c17.179,-2.962 29.382,-18.482 29.382,-37.32c-0,-26.538 -18.956,-42.295 -50.47,-42.295l-55.328,-0l-0,170.959l55.92,-0Zm1744.37,-0l20.141,-0l-0,-75.706c-0,-21.918 14.217,-36.727 35.424,-36.727c20.022,0 29.5,10.9 29.5,34.121l-0,78.312l20.14,-0l0,-83.407c0,-30.803 -15.164,-47.508 -43.124,-47.508c-19.549,0 -34.24,9.004 -41.111,24.998l-1.659,0l0,-22.628l-19.311,-0l-0,128.545Zm-900.085,-0l20.141,-0l-0,-75.706c-0,-21.918 14.217,-36.727 35.424,-36.727c20.022,0 29.5,10.9 29.5,34.121l-0,78.312l20.141,-0l-0,-83.407c-0,-30.803 -15.165,-47.508 -43.125,-47.508c-19.548,0 -34.239,9.004 -41.111,24.998l-1.659,0l0,-22.628l-19.311,-0l0,128.545Zm345.404,-15.402c-16.231,0 -26.301,-8.293 -26.301,-21.799c-0,-13.388 9.478,-21.089 27.486,-21.918l33.054,-1.54l0,15.164c0,17.179 -14.809,30.093 -34.239,30.093Zm-442.815,-97.623c22.036,-0 35.779,15.638 35.779,40.874l0,15.757c0,25.353 -13.743,40.874 -35.779,40.874c-22.037,-0 -35.78,-15.521 -35.78,-40.874l0,-15.757c0,-25.236 13.743,-40.874 35.78,-40.874Zm-600.057,-0c22.037,-0 35.78,15.638 35.78,40.874l-0,15.757c-0,25.353 -13.743,40.874 -35.78,40.874c-22.036,-0 -35.779,-15.521 -35.779,-40.874l-0,-15.757c-0,-25.236 13.743,-40.874 35.779,-40.874Zm411.775,56.986l0,-17.653c0,-23.576 13.743,-38.859 35.069,-38.859c21.207,-0 34.831,15.164 34.831,38.859l0,17.653c0,23.695 -13.624,38.978 -34.831,38.978c-21.326,0 -35.069,-15.401 -35.069,-38.978Zm-593.777,37.912l-0,-61.607l29.974,0c27.723,0 42.059,10.426 42.059,30.567c-0,20.377 -14.217,31.04 -41.348,31.04l-30.685,0Zm1683.57,-95.491c20.733,0 33.292,14.81 33.292,39.334l-67.65,0c0,-24.643 12.914,-39.334 34.358,-39.334Zm-1683.57,-39.333l29.856,-0c21.799,-0 34.12,10.07 34.12,27.96c0,18.008 -13.032,27.841 -37.319,27.841l-26.657,0l-0,-55.801Zm2590.83,-269.251l2.301,0l0,34.29c0,38.893 -25.084,62.137 -65.128,62.137c-28.767,0 -44.416,-12.197 -53.622,-20.712c-7.364,-6.904 -11.967,-13.118 -21.633,-13.118c-10.126,0 -16.799,7.134 -16.799,17.03c-0,12.888 11.276,26.006 26.005,34.981c17.26,10.586 40.964,16.57 67.66,16.57c60.295,-0 102.871,-31.299 102.871,-97.808l-0,-215.177c-0,-14.959 -7.825,-22.093 -19.102,-22.093c-11.046,-0 -18.641,6.904 -18.641,21.633l0,17.03l-1.841,-0c-8.515,-20.022 -33.6,-40.274 -71.342,-40.274c-52.011,-0 -94.586,38.663 -94.586,101.49l0,40.964c0,62.827 42.575,101.03 95.046,101.03c34.981,-0 59.375,-17.261 68.811,-37.973Zm208.043,-205.741c-59.605,-0 -104.022,38.893 -104.022,106.553l0,36.821c0,67.89 44.417,106.783 104.022,106.783c59.375,0 103.791,-38.893 103.791,-106.783l0,-36.821c0,-67.66 -44.416,-106.553 -103.791,-106.553Zm-949.541,-0c-59.605,-0 -104.021,38.893 -104.021,106.553l-0,36.821c-0,67.89 44.416,106.783 104.021,106.783c59.375,0 103.791,-38.893 103.791,-106.783l0,-36.821c0,-67.66 -44.416,-106.553 -103.791,-106.553Zm-1152.29,144.525c0,65.359 40.044,105.632 104.942,105.632c32.45,0 61.907,-10.126 77.096,-26.465c6.904,-7.134 11.277,-15.88 11.277,-23.014c-0,-9.665 -6.674,-16.8 -15.42,-16.8c-6.673,0 -9.435,1.841 -21.862,13.348c-12.888,12.428 -28.767,18.641 -49.25,18.641c-41.424,0 -66.509,-26.235 -66.739,-68.12l0,-12.658l137.621,0c17.03,0 21.633,-7.364 21.633,-33.599c0,-59.375 -40.504,-101.49 -98.268,-101.49c-59.605,-0 -101.03,43.726 -101.03,106.322l0,38.203Zm-520.567,69.271l1.611,-0l-0,13.578c0.46,13.118 7.364,20.942 19.101,20.942c12.197,0 19.332,-8.054 19.332,-21.863l-0,-145.906c-0,-51.78 -32.219,-80.317 -90.444,-80.317c-23.704,-0 -41.885,4.372 -55.923,12.427c-19.331,11.047 -28.767,24.395 -28.767,37.973c0,9.435 6.214,15.649 15.419,15.649c7.134,-0 12.428,-2.302 17.951,-8.745c14.498,-16.57 28.307,-23.704 48.789,-23.704c34.75,-0 53.391,15.879 53.391,46.947l0,23.474l-63.978,0c-53.161,0 -85.15,27.386 -85.15,71.342c0,44.417 31.759,74.334 78.937,74.334c30.608,0 55.232,-12.657 69.731,-36.131Zm1988.37,-7.825l2.302,0l-0,21.633c-0,14.269 8.515,20.712 19.791,20.712c11.277,0 19.792,-6.213 19.792,-21.172l0,-204.131c0,-14.959 -8.515,-21.402 -19.792,-21.402c-11.506,-0 -20.021,6.443 -20.021,21.402l-0,135.09c-0,31.068 -26.006,57.074 -65.129,57.074c-27.616,-0 -51.78,-12.888 -51.78,-52.931l-0,-139.233c-0,-14.959 -8.515,-21.402 -19.792,-21.402c-11.507,-0 -20.022,6.443 -20.022,21.402l0,149.359c0,55.923 35.671,77.555 80.317,77.555c46.948,0 66.97,-24.164 74.334,-43.956Zm-1729.7,0l2.301,0l0,21.633c0,14.269 8.515,20.712 19.792,20.712c11.276,0 19.791,-6.213 19.791,-21.172l0,-204.131c0,-14.959 -8.515,-21.402 -19.791,-21.402c-11.507,-0 -20.022,6.443 -20.022,21.402l-0,135.09c-0,31.068 -26.005,57.074 -65.129,57.074c-27.616,-0 -51.78,-12.888 -51.78,-52.931l-0,-139.233c-0,-14.959 -8.515,-21.402 -19.792,-21.402c-11.507,-0 -20.022,6.443 -20.022,21.402l0,149.359c0,55.923 35.671,77.555 80.318,77.555c46.948,0 66.969,-24.164 74.334,-43.956Zm800.412,-24.164c0,50.4 16.8,67.89 60.526,67.89c13.118,0 22.093,-1.611 28.537,-4.833c7.134,-3.452 10.126,-8.745 10.126,-15.189c0,-8.975 -6.214,-14.728 -15.189,-14.728c-4.372,-0 -8.975,0.69 -15.419,0.69c-22.323,0 -28.767,-7.594 -28.767,-33.37l-0,-144.525l32.219,-0c11.277,-0 18.411,-6.214 18.411,-16.57c-0,-10.356 -6.904,-16.8 -18.411,-16.8l-32.449,0l-0,-39.813c-0,-13.808 -7.365,-21.863 -19.792,-21.863c-12.197,-0 -19.561,8.055 -19.561,21.863l-0,39.813l-17.721,0c-11.507,0 -18.411,6.444 -18.411,16.8c0,10.356 7.134,16.57 18.411,16.57l17.49,-0l0,144.065Zm-82.158,44.416l-0,-145.676c-0,-50.86 -30.148,-80.317 -82.389,-80.317c-37.052,-0 -63.287,17.49 -73.413,48.098l-2.071,0l-0,-24.854c-0,-13.578 -7.365,-21.633 -19.562,-21.633c-12.197,-0 -19.792,8.285 -19.792,22.093l0,202.289c0,13.808 7.365,22.093 19.792,22.093c12.427,0 19.792,-8.285 19.792,-22.093l-0,-115.528c-0,-47.178 25.085,-75.485 64.898,-75.485c34.06,0 52.931,19.792 52.931,57.304l0,133.709c0,13.808 7.365,22.093 19.792,22.093c12.427,0 20.022,-8.285 20.022,-22.093Zm2007.25,0l-0,-145.676c-0,-50.86 -30.148,-80.317 -82.389,-80.317c-37.052,-0 -63.287,17.49 -73.413,48.098l-2.072,0l0,-24.854c0,-13.578 -7.364,-21.633 -19.561,-21.633c-12.197,-0 -19.792,8.285 -19.792,22.093l0,202.289c0,13.808 7.364,22.093 19.792,22.093c12.427,0 19.791,-8.285 19.791,-22.093l0,-115.528c0,-47.178 25.085,-75.485 64.899,-75.485c34.06,0 52.931,19.792 52.931,57.304l0,133.709c0,13.808 7.364,22.093 19.792,22.093c12.427,0 20.022,-8.285 20.022,-22.093Zm-2573.61,0l0,-130.026c0,-39.814 18.411,-58.915 53.852,-59.145c7.595,-0 13.348,-0.921 17.491,-3.222c5.293,-2.992 7.824,-7.825 7.824,-14.959c0,-6.214 -2.761,-11.507 -7.824,-14.499c-4.373,-2.761 -10.126,-4.142 -17.031,-4.142c-22.093,-0 -40.734,10.816 -53.391,32.449l-1.151,-0l0,-9.205c0,-13.348 -7.134,-21.633 -19.331,-21.633c-12.197,-0 -20.022,8.515 -20.022,22.093l0,202.289c0,13.808 7.364,22.093 19.792,22.093c12.657,0 19.791,-8.285 19.791,-22.093Zm1729.7,0l0,-130.026c0,-39.814 18.411,-58.915 53.852,-59.145c7.594,-0 13.348,-0.921 17.49,-3.222c5.293,-2.992 7.825,-7.825 7.825,-14.959c-0,-6.214 -2.762,-11.507 -7.825,-14.499c-4.372,-2.761 -10.126,-4.142 -17.03,-4.142c-22.093,-0 -40.734,10.816 -53.391,32.449l-1.151,-0l-0,-9.205c-0,-13.348 -7.134,-21.633 -19.331,-21.633c-12.198,-0 -20.022,8.515 -20.022,22.093l-0,202.289c-0,13.808 7.364,22.093 19.791,22.093c12.658,0 19.792,-8.285 19.792,-22.093Zm-2312.87,1.841c-0,-11.046 -8.055,-18.18 -20.712,-18.18l-126.345,-0l0,-258.213c0,-13.578 -7.825,-22.093 -20.252,-22.093c-12.427,0 -20.022,8.515 -20.022,22.093l0,260.284c0,24.394 10.587,34.06 37.052,34.06l129.567,0c12.657,0 20.712,-6.904 20.712,-17.951Zm1472.41,-16.109c-0,24.394 10.586,34.06 37.052,34.06l76.175,0c68.12,0 109.774,-33.37 109.774,-87.912c0,-43.265 -25.545,-72.032 -68.12,-77.786l0,-1.611c32.449,-10.126 50.17,-34.52 50.17,-69.501c-0,-47.408 -33.6,-77.326 -87.222,-77.326l-80.777,0c-26.466,0 -37.052,9.666 -37.052,34.061l-0,246.015Zm-1407.97,-37.282c0,-24.625 17.03,-38.433 46.718,-38.433l61.906,0l0,27.386c0,30.148 -26.005,53.162 -59.375,53.162c-29.457,-0 -49.249,-17.03 -49.249,-42.115Zm1781.02,-140.153c39.123,0 63.518,29.918 63.518,75.485l-0,29.917c-0,46.718 -24.395,75.945 -63.518,75.945c-39.123,0 -63.978,-29.227 -63.978,-75.945l0,-29.917c0,-45.567 24.855,-75.485 63.978,-75.485Zm949.541,0c39.123,0 63.517,29.918 63.517,75.485l0,29.917c0,46.718 -24.394,75.945 -63.517,75.945c-39.123,0 -63.978,-29.227 -63.978,-75.945l0,-29.917c0,-45.567 24.855,-75.485 63.978,-75.485Zm-1282.55,176.284l0,-109.084l75.715,-0c41.885,-0 66.049,20.712 66.049,56.613c0,37.052 -25.085,52.471 -87.221,52.471l-54.543,0Zm950.692,-75.945l-0,-25.084c-0,-44.647 25.085,-75.025 63.517,-75.025c40.504,0 62.367,32.91 62.367,68.351l0,39.353c0,34.52 -21.172,66.969 -60.986,66.969c-38.202,0 -64.898,-29.917 -64.898,-74.564Zm-1729.93,-31.989l0,-0.69c0,-40.504 24.855,-68.12 61.446,-68.12c35.671,-0 58.455,26.465 58.455,68.12l-0,0.69l-119.901,0Zm779.24,-35.671l0,-100.109l71.342,0c33.6,0 53.162,17.951 53.162,49.019c-0,34.981 -23.704,51.09 -76.405,51.09l-48.099,0Z" style="fill:#4191b6;fill-rule:nonzero;"/></svg>